<?xml version="1.0" encoding="UTF-8" standalone="no"?>
<svg
   xmlns:dc="http://purl.org/dc/elements/1.1/"
   xmlns:cc="http://creativecommons.org/ns#"
   xmlns:rdf="http://www.w3.org/1999/02/22-rdf-syntax-ns#"
   xmlns:svg="http://www.w3.org/2000/svg"
   xmlns="http://www.w3.org/2000/svg"
   xmlns:sodipodi="http://sodipodi.sourceforge.net/DTD/sodipodi-0.dtd"
   xmlns:inkscape="http://www.inkscape.org/namespaces/inkscape"
   height="24"
   viewBox="0 0 24 24"
   width="24"
   version="1.1"
   id="svg863"
   sodipodi:docname="mActionAddPart.svg"
   inkscape:version="0.92.4 (5da689c313, 2019-01-14)">
  <metadata
     id="metadata869">
    <rdf:RDF>
      <cc:Work
         rdf:about="">
        <dc:format>image/svg+xml</dc:format>
        <dc:type
           rdf:resource="http://purl.org/dc/dcmitype/StillImage" />
        <dc:title></dc:title>
      </cc:Work>
    </rdf:RDF>
  </metadata>
  <defs
     id="defs867" />
  <sodipodi:namedview
     pagecolor="#ffffff"
     bordercolor="#666666"
     borderopacity="1"
     objecttolerance="10"
     gridtolerance="10"
     guidetolerance="10"
     inkscape:pageopacity="0"
     inkscape:pageshadow="2"
     inkscape:window-width="1920"
     inkscape:window-height="1005"
     id="namedview865"
     showgrid="false"
     inkscape:zoom="33.833333"
     inkscape:cx="12"
     inkscape:cy="12"
     inkscape:window-x="-9"
     inkscape:window-y="-9"
     inkscape:window-maximized="1"
     inkscape:current-layer="svg863" />
  <linearGradient
     gradientUnits="userSpaceOnUse"
     x1="-10"
     x2="-10"
     y1="15"
     y2="21"
     id="linearGradient847">
    <stop
       offset="0"
       stop-color="#555753"
       id="stop843" />
    <stop
       offset="1"
       stop-color="#555753"
       stop-opacity="0"
       id="stop845" />
  </linearGradient>
  <g
     id="g855"
     transform="translate(33)">
    <rect
       style="fill:#c4a000"
       id="rect849"
       y="13"
       x="-20"
       width="11"
       rx="2.0114901"
       height="11" />
    <path
       style="fill:#fcffff"
       inkscape:connector-curvature="0"
       id="path851"
       d="m -15,14 v 2.0625 c -0.537663,0.111041 -1.024662,0.383291 -1.375,0.78125 l -1.78125,-1.03125 -0.5,0.875 1.78125,1.03125 C -16.957063,17.966182 -17,18.225145 -17,18.5 c 0,0.274855 0.04294,0.533818 0.125,0.78125 l -1.78125,1.03125 0.5,0.875 1.78125,-1.03125 c 0.352503,0.40042 0.832682,0.670182 1.375,0.78125 V 23 h 1 v -2.0625 c 0.537663,-0.111041 1.024662,-0.383291 1.375,-0.78125 l 1.78125,1.03125 0.5,-0.875 -1.78125,-1.03125 C -12.042937,19.033818 -12,18.774855 -12,18.5 c 0,-0.274855 -0.04294,-0.533818 -0.125,-0.78125 l 1.78125,-1.03125 -0.5,-0.875 -1.78125,1.03125 C -12.977503,16.44333 -13.457682,16.173568 -14,16.0625 V 14 Z m 0.5,3.5 c 0.552,0 1,0.448 1,1 0,0.552 -0.448,1 -1,1 -0.552,0 -1,-0.448 -1,-1 0,-0.552 0.448,-1 1,-1 z" />
    <path
       style="opacity:0.3;fill:#fcffff;fill-rule:evenodd"
       inkscape:connector-curvature="0"
       id="path853"
       d="m -19,19 9,-0.0096 c 0,0 0,0 0,-2 C -10,14 -11,14 -14.5,14 c -3.5,0 -4.5,0 -4.5,3 0,2 0,2 0,2 z" />
  </g>
  <path
     inkscape:connector-curvature="0"
     id="path857"
     style="fill:#bebebe;fill-rule:evenodd;stroke:#555753;stroke-width:0.99999994;stroke-linecap:round;stroke-linejoin:round"
     d="M 8.0275933,1.5013891 C 5.2092461,1.5480259 2.7397691,2.756645 1.7436095,5.696115 0.75514165,8.612886 2.915096,13.878123 7.6761858,11.536618 15.583927,7.647591 15.579989,12.5 17.556924,12.5 c 2.438571,0 4.94037,-1.699566 4.94037,-3.873599 0,-1.944514 0.09638,-3.806388 -0.992208,-4.87712 C 19.528151,1.804767 18.531409,4.736677 13.216015,2.565123 11.521998,1.8730484 9.7186023,1.4734061 8.0275933,1.5013891 Z" />
  <path
     style="fill:#8cbe8c;stroke:#555753"
     inkscape:connector-curvature="0"
     id="path859"
     d="M 1.51334,20.024759 C 3.1533034,16.864029 5.5454004,14.277581 8.5,13 13.581278,11.445533 11.405722,22.431718 7.567942,22.499633 4.1612476,22.599368 1.1170666,20.923132 1.51334,20.024759 Z" />
</svg>
